<?xml version="1.0" standalone="no"?>
<!DOCTYPE svg PUBLIC "-//W3C//DTD SVG 20010904//EN"
 "http://www.w3.org/TR/2001/REC-SVG-20010904/DTD/svg10.dtd">
<svg version="1.0" xmlns="http://www.w3.org/2000/svg"
 width="560.000000pt" height="560.000000pt" viewBox="0 0 560.000000 560.000000"
 preserveAspectRatio="xMidYMid meet">
<g transform="translate(0.000000,560.000000) scale(0.050000,-0.050000)"
fill="#000000" stroke="none">
<path d="M5180 9698 c-1472 -148 -2794 -1103 -3401 -2458 -943 -2104 -51
-4574 2011 -5570 496 -239 678 -263 748 -96 37 90 21 878 -17 870 -662 -146
-1148 49 -1400 563 -140 285 -235 417 -371 513 -250 177 -291 257 -156 301
226 75 556 -110 759 -426 265 -412 646 -549 1087 -391 123 44 129 50 144 126
27 134 78 254 158 374 l77 114 -74 12 c-1185 183 -1702 690 -1806 1772 -53
546 47 963 316 1318 l99 130 -31 80 c-55 140 -44 679 18 880 l49 160 86 6
c194 14 609 -141 925 -345 l144 -94 253 51 c581 116 1097 113 1662 -11 l191
-41 189 115 c338 206 615 311 835 316 l133 3 36 -97 c99 -263 117 -652 43
-917 l-32 -114 70 -86 c357 -440 453 -1096 265 -1811 -204 -772 -702 -1148
-1746 -1316 l-66 -11 62 -77 c178 -226 200 -359 200 -1211 0 -762 3 -790 103
-841 302 -157 1482 573 2074 1281 2410 2882 89 7302 -3637 6928z"/>
</g>
</svg>
